<svg height="511pt" viewBox="1 -28 511.999 511" width="511pt" xmlns="http://www.w3.org/2000/svg"><path d="m361.300781 166.125-33.476562 33.472656 72.632812 72.632813h102.714844v-29.871094c-6.824219-6.824219-10.648437-10.648437-17.472656-17.472656h-65.632813zm0 0" fill="#ff3f62"/><path d="m376.300781 181.125-15-15.003906-33.476562 33.476562 72.632812 72.628906h30l-72.628906-72.628906zm0 0" fill="#c70024"/><path d="m118.941406 118.460938c-7.507812 2.777343-15.691406 3.746093-23.917968 2.9375-3.808594-.371094-7.628907-1.125-11.394532-2.25-9.863281-2.957032-19.375-8.488282-27.421875-16.539063-8.046875-8.046875-13.582031-17.554687-16.539062-27.421875-1.125-3.765625-1.875-7.582031-2.25-11.390625-.808594-8.230469.160156-16.414063 2.9375-23.921875 1.101562-2.96875 3.445312-5.3125 6.414062-6.414062 7.507813-2.777344 15.691407-3.742188 23.921875-2.9375 3.808594.371093 7.625 1.125 11.390625 2.25 9.867188 2.957031 19.378907 8.488281 27.425781 16.535156 8.046876 8.046875 13.578126 17.558594 16.535157 27.425781 1.125 3.765625 1.878906 7.582031 2.25 11.390625.804687 8.230469-.160157 16.414062-2.9375 23.921875-1.101563 2.972656-3.445313 5.316406-6.414063 6.414063zm0 0" fill="#ffb655"/><path d="m418.335938 59.171875v67.949219h-63.617188c-11.371094-11.371094-17.746094-17.746094-29.117188-29.117188v-38.832031c0-25.609375 20.757813-46.367187 46.367188-46.367187 25.605469 0 46.367188 20.757812 46.367188 46.367187zm0 0" fill="#57a4ff"/><path d="m373.914062 58.710938h44.421876v68.410156h-44.421876zm0 0" fill="#ffdaaa"/><path d="m242.332031 114.105469 33.472657-33.476563-72.628907-72.628906h-102.714843v29.867188l17.472656 17.472656h65.632812zm0 0" fill="#ff3f62"/><path d="m130.460938 8h-30v29.871094l17.472656 17.46875h30l-17.472656-17.46875zm0 0" fill="#c70024"/><path d="m213.570312 55.339844h-30.003906l58.765625 58.765625 15-15.003907zm0 0" fill="#c70024"/><path d="m57.882812 372.183594 96.535157-96.53125 33.472656 33.472656-96.53125 96.53125zm0 0" fill="#fff"/><path d="m8.832031 421.242188 22.867188 22.867187h21.210937l38.453125-38.449219-33.476562-33.476562zm0 0" fill="#ff3f62"/><path d="m361.300781 166.121094-29.050781-29.050782 16.210938-16.210937-22.859376-22.855469v-9.066406l-20.742187 20.742188-29.054687-29.050782-103.085938 103.089844 85.492188 85.492188zm0 0" fill="#ff3f62"/><path d="m236.570312 290.851562 21.640626-21.640624-85.492188-85.492188-27.882812 27.882812v54.464844l97.582031 97.582032-14.390625 14.386718 33.476562 33.476563 47.863282-47.863281zm0 0" fill="#fff"/><path d="m179.183594 426.882812 21.117187 21.121094h24.710938l36.492187-36.492187-33.476562-33.476563zm0 0" fill="#ff3f62"/><g fill="#fff"><path d="m327.820312 199.601562 33.476563-33.476562 19.214844 19.21875-33.472657 33.472656zm0 0"/><path d="m364.644531 236.421875 33.476563-33.472656 19.214844 19.214843-33.472657 33.476563zm0 0"/><path d="m186.289062 58.0625 33.472657-33.472656 19.21875 19.214844-33.476563 33.476562zm0 0"/><path d="m223.113281 94.886719 33.472657-33.472657 19.21875 19.214844-33.476563 33.476563zm0 0"/></g><path d="m113.632812 119.148438c-9.867187-2.957032-19.378906-8.488282-27.425781-16.539063-8.046875-8.046875-13.578125-17.554687-16.539062-27.421875-1.125-3.765625-1.875-7.582031-2.25-11.390625-.804688-8.230469.160156-16.414063 2.9375-23.921875 1.101562-2.96875 3.445312-5.3125 6.414062-6.414062 1.179688-.433594 2.382813-.8125 3.589844-1.15625-3.207031-.859376-6.4375-1.464844-9.671875-1.78125-8.230469-.808594-16.410156.160156-23.917969 2.9375-2.972656 1.101562-5.316406 3.445312-6.414062 6.414062-2.777344 7.507812-3.746094 15.691406-2.9375 23.921875.371093 3.804687 1.125 7.625 2.25 11.390625 2.957031 9.863281 8.492187 19.375 16.539062 27.421875s17.558594 13.582031 27.421875 16.539063c3.765625 1.125 7.582032 1.878906 11.390625 2.25 6.9375.679687 13.839844.082031 20.332031-1.78125-.574218-.152344-1.148437-.296876-1.71875-.46875zm0 0" fill="#ff7956"/><path d="m355.601562 59.171875c0-20.355469 13.125-37.636719 31.367188-43.875-4.707031-1.609375-9.75-2.492187-15-2.492187-25.609375 0-46.367188 20.757812-46.367188 46.363281v38.835937l29.117188 29.113282h30l-29.117188-29.113282zm0 0" fill="#006df0"/><path d="m57.886719 372.183594 96.53125-96.535156 15 15-96.53125 96.535156zm0 0" fill="#e2e8ed"/><path d="m57.886719 372.183594-49.054688 49.058594 22.867188 22.867187h21.210937l4.394532-4.394531-18.472657-18.472656 34.054688-34.058594zm0 0" fill="#c70024"/><path d="m202.71875 183.71875 88.089844-88.089844-15.003906-15-103.085938 103.089844 85.492188 85.492188 15-15zm0 0" fill="#c70024"/><path d="m272.417969 363.648438-97.582031-97.582032v-54.464844l12.882812-12.882812-15-15-27.882812 27.882812v54.464844l97.582031 97.582032-14.390625 14.386718 15.003906 15zm0 0" fill="#e2e8ed"/><path d="m243.03125 393.035156-15.003906-15-48.84375 48.847656 21.117187 21.121094h24.710938l2.644531-2.644531-18.472656-18.476563zm0 0" fill="#c70024"/><path d="m52.234375 107.914062c20.15625 20.160157 48.21875 25.878907 70.640625 17.582032 5.03125-1.863282 8.980469-5.8125 10.84375-10.84375 8.398438-22.695313 2.359375-50.707032-17.578125-70.644532-19.777344-19.785156-47.765625-26.042968-70.644531-17.578124-5.027344 1.863281-8.980469 5.8125-10.84375 10.847656-8.300782 22.4375-2.558594 50.496094 17.582031 70.636718zm67.417969 1.53125c-.34375.917969-1.066406 1.640626-1.984375 1.980469-8.320313 3.082031-18.125 3.683594-28.089844 1.210938l31.285156-31.285157c.617188 2.492188 1.054688 5.007813 1.296875 7.507813.699219 7.140625-.167968 14.261719-2.507812 20.585937zm-5-43.097656-40.078125 40.078125c-4.226563-2.507812-8.179688-5.566406-11.734375-9.117187-3.597656-3.597656-6.683594-7.613282-9.210938-11.898438l40.007813-40.007812c4.285156 2.527344 8.300781 5.613281 11.898437 9.210937 3.554688 3.554688 6.609375 7.511719 9.117188 11.734375zm-65.933594-23.863281c.34375-.921875 1.066406-1.648437 1.984375-1.988281 8.152344-3.011719 17.824219-3.707032 27.882813-1.257813l-31.121094 31.125c-2.433594-9.972656-1.78125-19.679687 1.253906-27.878906zm0 0"/><path d="m490.136719 217.386719h-65.632813c-4.605468-4.601563-75.433594-75.429688-80.320312-80.316407l5.605468-5.601562 3.152344 3.152344h78.808594l14.109375-14.109375v-41.515625h-18.695313v-19.824219c0-29.703125-24.164062-53.867187-53.863281-53.867187-29.703125 0-53.867187 24.164062-53.867187 53.867187v26.660156l-13.242188 13.242188-98.578125-98.574219h-105.820312v15h99.605469l9.089843 9.089844-23.25 23.25h-47.222656v15h41.773437c5.246094 5.246094 43.796876 43.796875 51.265626 51.265625l-50.167969 50.167969 10.609375 10.605468 50.164062-50.167968 33.476563-33.476563 29.050781 29.054687 16.210938-16.210937 16.785156 16.78125-16.210938 16.210937 29.050782 29.054688-83.644532 83.640625 10.609375 10.609375 50.167969-50.167969c17.625 17.621094 51.546875 51.546875 69.523438 69.519531h113.320312v-40.476562zm-223.609375-136.757813-22.867188 22.867188c-2.136718-2.136719-6.417968-6.421875-8.609375-8.609375l22.871094-22.867188zm-36.820313-36.824218-22.871093 22.867187-8.609376-8.609375 22.867188-22.867188zm-12.261719 33.476562 22.867188-22.871094 7 7.003906-22.867188 22.867188zm163.351563 16.714844h8.183594v25.625h-8.183594zm23.183594 25.625v-25.625h8.183593v25.625zm26.878906-25.625v20.300781l-3.695313 3.691406v-23.992187zm-50.0625-15v-12.324219h31.367187v12.324219zm-46.363281 15.898437v-35.722656c0-21.433594 17.433594-38.867187 38.863281-38.867187 18.867187 0 34.628906 13.511718 38.132813 31.363281h-45.632813v67.953125h-6.640625zm42.152344 141.527344 22.867187-22.867187 8.613281 8.609374-22.871094 22.871094c-.832031-.835937-7.84375-7.847656-8.609374-8.613281zm-5.347657-51.082031-22.863281 22.867187-8.613281-8.609375 22.871093-22.867187zm10.609375 10.605468 7 7.003907-22.867187 22.867187-7-7zm115.152344 68.78125h-92.109375l-9.085937-9.085937 23.25-23.253906h64.867187l13.078125 13.078125zm0 0"/><path d="m270.148438 269.210938-96.101563-96.101563-35.382813 35.386719v60.675781l6.480469 6.480469-145.144531 145.144531 30.367188 30.367187h27.425781c.109375-.109374 37.828125-37.242187 131.433593-131.433593l43.914063 43.917969c-8.789063 8.785156 16.253906-16.253907-63.234375 63.234374l28.621094 28.621094h30.921875l91.855469-91.859375-72.796876-72.792969zm-216.960938 165.347656h-18.167969l-13.621093-13.621094 37.308593-37.308594 22.703125 22.703125zm38.828125-38.832032-22.867187-22.867187 86.601562-86.601563 22.867188 22.867188zm112.722656 44.777344-13.621093-13.621094c4.210937-4.210937 33.886718-33.886718 37.753906-37.753906l22.871094 22.867188-28.507813 28.507812zm95.351563-76.855468-37.742188 37.742187-22.867187-22.867187 14.875-14.875c-12.246094-12.246094-88.804688-88.800782-100.691407-100.6875v-48.253907l20.382813-20.382812 74.890625 74.886719-11.035156 11.035156-26.335938-26.335938-10.605468 10.609375c24.316406 24.316407 74.511718 74.511719 99.128906 99.128907zm0 0"/><path d="m260.390625 122.277344-28.964844 28.964844v11.398437l17.273438 17.273437h11.398437l28.964844-28.964843v-11.398438l-17.273438-17.273437zm-5.992187 42.121094-7.457032-7.457032 19.148438-19.148437 7.457031 7.457031zm0 0"/><path d="m265.210938 196.425781 17.273437 17.269531h11.398437l28.964844-28.960937v-11.402344l-17.273437-17.269531h-11.398438l-28.964843 28.964844zm34.664062-24.851562 7.457031 7.457031-19.148437 19.152344-7.457032-7.457032zm0 0"/><path d="m256.609375 239.71875-13.582031-13.585938 10.605468-10.605468 13.582032 13.582031zm-20.65625-20.65625-10.605469-10.605469 10.605469-10.609375 10.605469 10.609375zm-17.679687-17.679688-10.605469-10.605468 10.609375-10.605469 10.605468 10.605469zm0 0" fill="#fff"/></svg>